<?xml version="1.0" encoding="UTF-8"?>
<!DOCTYPE svg PUBLIC "-//W3C//DTD SVG 1.1//EN" "http://www.w3.org/Graphics/SVG/1.1/DTD/svg11.dtd">
<!-- Creator: CorelDRAW 2021 (64-Bit) -->
<svg xmlns="http://www.w3.org/2000/svg" xml:space="preserve" width="7.60417in" height="1.77083in" version="1.1" style="shape-rendering:geometricPrecision; text-rendering:geometricPrecision; image-rendering:optimizeQuality; fill-rule:evenodd; clip-rule:evenodd"
viewBox="0 0 7604.17 1770.83"
 xmlns:xlink="http://www.w3.org/1999/xlink"
 xmlns:xodm="http://www.corel.com/coreldraw/odm/2003">
 <defs>
  <style type="text/css">
   <![CDATA[
    .fil0 {fill:#CC2D30}
    .fil1 {fill:#CC2D30;fill-rule:nonzero}
   ]]>
  </style>
 </defs>
 <g id="Layer_x0020_1">
  <metadata id="CorelCorpID_0Corel-Layer"/>
  <g id="_2580341281440">
   <path class="fil0" d="M271.53 61.96l1413.64 0 0.02 414.09 -242.58 517.5 -378.55 -651.37 -353.34 694.24 -439.19 -974.46zm1415.87 661.13l-0.01 992.89 -1658.43 2.21 -0.01 -974.48 414.1 863.67 414.59 -715.18 413.44 715.18 416.31 -884.3z"/>
   <path class="fil1" d="M1890.81 1717.08l423.86 0 0 -931.22 -423.86 0 0 931.22zm0 -1355.39l0 338.28 423.86 0 0 -338.28 -423.86 0zm561.78 2.28l0 347.94 556.74 0 -576.92 593.44 0 411.73 1088.24 0 0 -361.48 -576.93 0 558.42 -579.9 0 -411.73 -1049.56 0zm1488.56 0l-412.37 1353.11 451.05 0 79.05 -291.89 353.22 0 80.73 291.89 474.32 0 -418.81 -1353.11 -607.19 0zm297.71 320.88l122.79 423.33 -250.61 0 121.1 -423.33 6.72 0zm787.17 -320.88l0 1353.11 450.77 0 0 -471.66 100.92 0c48.78,0 131.2,15.46 146.33,133.38l43.73 338.28 470.95 0 -77.37 -392.4c-35.32,-181.7 -153.07,-233.9 -232.12,-247.43l0 -3.87c153.06,-29 275.85,-150.78 275.85,-347.94 0,-342.14 -307.8,-361.47 -474.32,-361.47l-704.74 0zm430.59 301.55l117.74 0c50.45,0 176.61,3.86 176.61,141.11 0,150.78 -142.97,148.84 -183.34,148.84l-111.01 0 0 -289.95zm894.81 -301.55l0 1353.11 645.89 0c492.81,0 592.06,-402.07 592.06,-670.76 0,-297.68 -116.06,-682.35 -592.06,-682.35l-645.89 0zm450.77 318.94l90.83 0c109.33,0 222.02,42.52 222.02,355.68 0,305.41 -121.1,340.21 -222.02,340.21l-90.83 0 0 -695.89z"/>
  </g>
 </g>
</svg>
